<svg xmlns="http://www.w3.org/2000/svg" width="267" height="800" viewBox="0 0 267 800">
  <metadata><?xpacket begin="﻿" id="W5M0MpCehiHzreSzNTczkc9d"?>
<x:xmpmeta xmlns:x="adobe:ns:meta/" x:xmptk="Adobe XMP Core 5.6-c140 79.160451, 2017/05/06-01:08:21        ">
   <rdf:RDF xmlns:rdf="http://www.w3.org/1999/02/22-rdf-syntax-ns#">
      <rdf:Description rdf:about=""/>
   </rdf:RDF>
</x:xmpmeta>





















<?xpacket end="w"?></metadata>
<defs>
    <style>
      .cls-1 {
        fill: #a9a9a9;
        fill-rule: evenodd;
        opacity: 1;
      }
    </style>
  </defs>
  <path id="Pixel" class="cls-1" d="M89,89h22v22H89V89Zm156,22v22H222q0.5-11,1-22h22ZM0,133H22l-1,23H0V133Zm156,23h22v44H156V156Zm89,0h22q-0.5,22-1,44H245V156ZM0,178H22v22H0V178Zm89,0h22v22H89V178Zm156,22v22l-23-1c-0.274-7.589-.271-16.282,2-21h21ZM0,222H22v22H0V222Zm178,0c6.557-.365,17.653-1.209,21,2q0.5,10,1,20H178V222ZM89,244v23H67V245Zm89,45H156V245h22v44Zm89-45v45H245V245ZM0,267H22v22H0V267Zm89,0h44v22H89V267ZM45,289H67v22H45V289Zm133,0h22v44H178V289Zm44,0h23v22H222V289ZM0,311H22v22H0V311Zm111,0h22v22H111V311ZM0,378V356H22l1-23,22,1-1,44H0Zm67-45H89v23H67V333Zm89,0h22v45H156V333Zm66,0v45l-22-1q0.5-22,1-44h21Zm23,0h22v45H245V333ZM89,356h45q-0.5,11-1,22H89V356ZM45,378H67v22H45V378Zm89,0h22v22H134V378Zm44,0h22v44H178V378Zm67,0v44H222q0.5-22,1-44h22ZM0,400H22v22l23,1-1,44H0V400Zm67,0H89v44H67V400Zm44,0c7.321-.334,18.859-1.158,23,2v43l22-1V422h22v45H155q0.5,22,1,44H133v22h23V511h22v45h22V511h22q0.5,22.5,1,45l22-1V511H222q0.5-11,1-22H200v22H178V467h22q0.5-22.5,1-45h21v45h23v22h22V800H0V489H45v44H67v23H89v22h45q-0.5-11.5-1-23l-44,1V533h22V489h23V467H89V444l22,1V400Zm134,22h22v45H245V422ZM45,467H89v66H67V489H45V467ZM22,578H45v22H67V578H45l-1-23-22,1v22Zm134,0v22H133v22h23V600h22V578H156Zm44,0v22h22q0.5,22.5,1,45l22-1V600H222q0.5-11,1-22H200ZM89,600v22H67v22H89V622h22V600H89Zm22,67,23-1V645l-2-1-21,1v22Zm-66,0v22H67V667H45Zm155,0v22h22V667H200Zm-67,22v22h23V689H133Z"/>
</svg>
